<mxfile host="65bd71144e">
    <diagram id="NW6HLIrqErbMiRj-WH_E" name="Page-1">
        <mxGraphModel dx="2834" dy="2353" grid="1" gridSize="10" guides="1" tooltips="1" connect="1" arrows="1" fold="1" page="1" pageScale="1" pageWidth="827" pageHeight="1169" math="0" shadow="0">
            <root>
                <mxCell id="0"/>
                <mxCell id="1" parent="0"/>
                <mxCell id="4" value="" style="rounded=0;whiteSpace=wrap;html=1;" vertex="1" parent="1">
                    <mxGeometry x="-80" y="-900" width="1370" height="1160" as="geometry"/>
                </mxCell>
                <mxCell id="5" value="&lt;i&gt;Cluster&lt;br&gt;local&lt;br&gt;&lt;/i&gt;" style="text;html=1;strokeColor=none;fillColor=none;align=center;verticalAlign=middle;whiteSpace=wrap;rounded=0;" vertex="1" parent="1">
                    <mxGeometry x="-70" y="-890" width="160.5" height="67.5" as="geometry"/>
                </mxCell>
                <mxCell id="11" value="" style="group" vertex="1" connectable="0" parent="1">
                    <mxGeometry x="140" y="-330" width="491.63" height="552.54" as="geometry"/>
                </mxCell>
                <mxCell id="7" value="" style="rounded=0;whiteSpace=wrap;html=1;" vertex="1" parent="11">
                    <mxGeometry width="430" height="552.54" as="geometry"/>
                </mxCell>
                <mxCell id="8" value="&lt;i&gt;Namespace&lt;br&gt;invoices&lt;br&gt;&lt;/i&gt;" style="text;html=1;strokeColor=none;fillColor=none;align=center;verticalAlign=middle;whiteSpace=wrap;rounded=0;" vertex="1" parent="11">
                    <mxGeometry x="-0.0034285714285715585" y="-0.00007206896561484655" width="168.55885714285714" height="70.25831896551723" as="geometry"/>
                </mxCell>
                <mxCell id="28" value="" style="group" vertex="1" connectable="0" parent="11">
                    <mxGeometry x="32.49" y="89.31" width="360" height="410.69" as="geometry"/>
                </mxCell>
                <mxCell id="13" value="" style="rounded=0;whiteSpace=wrap;html=1;" vertex="1" parent="28">
                    <mxGeometry width="360" height="410.69" as="geometry"/>
                </mxCell>
                <mxCell id="14" value="&lt;i&gt;Deployment&lt;br&gt;invoice-app&lt;br&gt;&lt;/i&gt;" style="text;html=1;strokeColor=none;fillColor=none;align=center;verticalAlign=middle;whiteSpace=wrap;rounded=0;" vertex="1" parent="28">
                    <mxGeometry width="110" height="80" as="geometry"/>
                </mxCell>
                <mxCell id="38" value="&lt;i&gt;Service&lt;br&gt;&lt;/i&gt;&lt;i&gt;payment-provider&lt;/i&gt;&lt;i&gt;&lt;br&gt;&lt;/i&gt;" style="rounded=0;whiteSpace=wrap;html=1;" vertex="1" parent="28">
                    <mxGeometry x="200.5109436089015" y="110.69000000000005" width="134.29905639109853" height="60" as="geometry"/>
                </mxCell>
                <mxCell id="15" value="&lt;i&gt;Service&lt;br&gt;&lt;/i&gt;&lt;i&gt;invoice-app&lt;/i&gt;&lt;i&gt;&lt;br&gt;&lt;/i&gt;" style="rounded=0;whiteSpace=wrap;html=1;" vertex="1" parent="28">
                    <mxGeometry x="40.510000000000005" y="110.69000000000005" width="120" height="60" as="geometry"/>
                </mxCell>
                <mxCell id="26" value="" style="group" vertex="1" connectable="0" parent="28">
                    <mxGeometry x="20.509999999999998" y="210.69000000000005" width="140" height="80" as="geometry"/>
                </mxCell>
                <mxCell id="21" value="&lt;i&gt;pod&lt;br&gt;payment-provider&lt;/i&gt;" style="rounded=0;whiteSpace=wrap;html=1;" vertex="1" parent="26">
                    <mxGeometry width="120" height="60" as="geometry"/>
                </mxCell>
                <mxCell id="24" value="&lt;i&gt;pod&lt;br&gt;payment-provider&lt;/i&gt;" style="rounded=0;whiteSpace=wrap;html=1;" vertex="1" parent="26">
                    <mxGeometry x="10" y="10" width="120" height="60" as="geometry"/>
                </mxCell>
                <mxCell id="25" value="&lt;i&gt;Pod&lt;br&gt;&lt;/i&gt;&lt;i&gt;invoice-app&lt;/i&gt;&lt;i&gt;&lt;br&gt;&lt;/i&gt;" style="rounded=0;whiteSpace=wrap;html=1;" vertex="1" parent="26">
                    <mxGeometry x="20" y="20" width="120" height="60" as="geometry"/>
                </mxCell>
                <mxCell id="40" style="edgeStyle=none;html=1;exitX=0.5;exitY=1;exitDx=0;exitDy=0;entryX=0.5;entryY=0;entryDx=0;entryDy=0;" edge="1" parent="28" source="15" target="25">
                    <mxGeometry relative="1" as="geometry"/>
                </mxCell>
                <mxCell id="80" value="&lt;i&gt;Role&lt;br&gt;&lt;/i&gt;&lt;i&gt;invoices-admin&lt;/i&gt;&lt;i&gt;&lt;br&gt;&lt;/i&gt;" style="rounded=0;whiteSpace=wrap;html=1;" vertex="1" parent="28">
                    <mxGeometry x="200.51094360890147" y="230.69" width="134.29905639109853" height="60" as="geometry"/>
                </mxCell>
                <mxCell id="60" value="" style="group" vertex="1" connectable="0" parent="1">
                    <mxGeometry x="230" y="380" width="491.63" height="552.54" as="geometry"/>
                </mxCell>
                <mxCell id="61" value="" style="rounded=0;whiteSpace=wrap;html=1;" vertex="1" parent="60">
                    <mxGeometry x="420" y="-710" width="430" height="552.54" as="geometry"/>
                </mxCell>
                <mxCell id="62" value="&lt;i&gt;Namespace&lt;br&gt;payments&lt;br&gt;&lt;/i&gt;" style="text;html=1;strokeColor=none;fillColor=none;align=center;verticalAlign=middle;whiteSpace=wrap;rounded=0;" vertex="1" parent="60">
                    <mxGeometry x="419.99657142857143" y="-710.0000720689657" width="168.55885714285714" height="70.25831896551723" as="geometry"/>
                </mxCell>
                <mxCell id="63" value="" style="group" vertex="1" connectable="0" parent="60">
                    <mxGeometry x="452.49" y="-620.69" width="360" height="410.69" as="geometry"/>
                </mxCell>
                <mxCell id="64" value="" style="rounded=0;whiteSpace=wrap;html=1;" vertex="1" parent="63">
                    <mxGeometry width="360" height="410.69" as="geometry"/>
                </mxCell>
                <mxCell id="65" value="&lt;i&gt;Deployment&lt;br&gt;payment-provider&lt;br&gt;&lt;/i&gt;" style="text;html=1;strokeColor=none;fillColor=none;align=center;verticalAlign=middle;whiteSpace=wrap;rounded=0;" vertex="1" parent="63">
                    <mxGeometry width="130" height="80" as="geometry"/>
                </mxCell>
                <mxCell id="67" value="&lt;i&gt;Service&lt;br&gt;&lt;/i&gt;&lt;i&gt;payment-provider&lt;/i&gt;&lt;i&gt;&lt;br&gt;&lt;/i&gt;" style="rounded=0;whiteSpace=wrap;html=1;" vertex="1" parent="63">
                    <mxGeometry x="40.510000000000005" y="110.69000000000005" width="120" height="60" as="geometry"/>
                </mxCell>
                <mxCell id="68" value="" style="group" vertex="1" connectable="0" parent="63">
                    <mxGeometry x="20.509999999999998" y="210.69000000000005" width="140" height="80" as="geometry"/>
                </mxCell>
                <mxCell id="69" value="&lt;i&gt;pod&lt;br&gt;payment-provider&lt;/i&gt;" style="rounded=0;whiteSpace=wrap;html=1;" vertex="1" parent="68">
                    <mxGeometry width="120" height="60" as="geometry"/>
                </mxCell>
                <mxCell id="70" value="&lt;i&gt;pod&lt;br&gt;payment-provider&lt;/i&gt;" style="rounded=0;whiteSpace=wrap;html=1;" vertex="1" parent="68">
                    <mxGeometry x="10" y="10" width="120" height="60" as="geometry"/>
                </mxCell>
                <mxCell id="71" value="&lt;i&gt;Pod&lt;br&gt;&lt;/i&gt;&lt;i&gt;payment-provider&lt;/i&gt;&lt;i&gt;&lt;br&gt;&lt;/i&gt;" style="rounded=0;whiteSpace=wrap;html=1;" vertex="1" parent="68">
                    <mxGeometry x="20" y="20" width="120" height="60" as="geometry"/>
                </mxCell>
                <mxCell id="72" style="edgeStyle=none;html=1;exitX=0.5;exitY=1;exitDx=0;exitDy=0;entryX=0.5;entryY=0;entryDx=0;entryDy=0;" edge="1" parent="63" source="67" target="71">
                    <mxGeometry relative="1" as="geometry"/>
                </mxCell>
                <mxCell id="81" value="&lt;i&gt;Role&lt;br&gt;&lt;/i&gt;&lt;i&gt;payments-admin&lt;/i&gt;&lt;i&gt;&lt;br&gt;&lt;/i&gt;" style="rounded=0;whiteSpace=wrap;html=1;" vertex="1" parent="63">
                    <mxGeometry x="205.3609436089015" y="230.69000000000005" width="134.29905639109853" height="60" as="geometry"/>
                </mxCell>
                <mxCell id="41" style="edgeStyle=none;html=1;exitX=1;exitY=0.5;exitDx=0;exitDy=0;entryX=0;entryY=0.5;entryDx=0;entryDy=0;" edge="1" parent="1" source="38" target="67">
                    <mxGeometry relative="1" as="geometry">
                        <mxPoint x="792.6726804123709" y="-96.19538856915278" as="targetPoint"/>
                    </mxGeometry>
                </mxCell>
                <mxCell id="74" value="&lt;span style=&quot;color: rgba(0 , 0 , 0 , 0) ; font-family: monospace ; font-size: 0px&quot;&gt;%3CmxGraphModel%3E%3Croot%3E%3CmxCell%20id%3D%220%22%2F%3E%3CmxCell%20id%3D%221%22%20parent%3D%220%22%2F%3E%3CmxCell%20id%3D%222%22%20value%3D%22%26lt%3Bi%26gt%3Bdeployment%26lt%3Bbr%26gt%3Binvoice-app%26lt%3Bbr%26gt%3B%26lt%3B%2Fi%26gt%3B%22%20style%3D%22text%3Bhtml%3D1%3BstrokeColor%3Dnone%3BfillColor%3Dnone%3Balign%3Dcenter%3BverticalAlign%3Dmiddle%3BwhiteSpace%3Dwrap%3Brounded%3D0%3B%22%20vertex%3D%221%22%20parent%3D%221%22%3E%3CmxGeometry%20x%3D%22182.49%22%20y%3D%22-240.69%22%20width%3D%22110%22%20height%3D%2280%22%20as%3D%22geometry%22%2F%3E%3C%2FmxCell%3E%3C%2Froot%3E%3C%2FmxGraphModel%3Ez&lt;/span&gt;" style="rounded=0;whiteSpace=wrap;html=1;" vertex="1" parent="1">
                    <mxGeometry x="90.5" y="390" width="389.5" height="480" as="geometry"/>
                </mxCell>
                <mxCell id="79" value="&lt;i&gt;ClusterRole&lt;br&gt;&lt;/i&gt;&lt;i&gt;admin&lt;/i&gt;&lt;i&gt;&lt;br&gt;&lt;/i&gt;" style="rounded=0;whiteSpace=wrap;html=1;" vertex="1" parent="1">
                    <mxGeometry x="30.00094360890148" y="-770" width="134.29905639109853" height="60" as="geometry"/>
                </mxCell>
                <mxCell id="82" value="&lt;i&gt;ClusterRoleBinding&lt;br&gt;&lt;/i&gt;&lt;i&gt;full-access&lt;br&gt;&lt;/i&gt;" style="rounded=0;whiteSpace=wrap;html=1;" vertex="1" parent="1">
                    <mxGeometry x="190.00094360890148" y="-770" width="134.29905639109853" height="60" as="geometry"/>
                </mxCell>
            </root>
        </mxGraphModel>
    </diagram>
</mxfile>